<svg width="58" height="59" viewBox="0 0 58 59" fill="none" xmlns="http://www.w3.org/2000/svg">
<path d="M27.55 0.776428C24.3467 0.776428 21.75 3.37317 21.75 6.57643V22.5264H5.8C2.59675 22.5264 0 25.1232 0 28.3264V31.2264C0 34.4297 2.59675 37.0264 5.8 37.0264H21.75V52.9764C21.75 56.1797 24.3467 58.7764 27.55 58.7764H30.45C33.6533 58.7764 36.25 56.1797 36.25 52.9764V37.0264H52.2C55.4032 37.0264 58 34.4297 58 31.2264V28.3264C58 25.1232 55.4032 22.5264 52.2 22.5264H36.25V6.57643C36.25 3.37317 33.6533 0.776428 30.45 0.776428H27.55Z" fill="white" />
</svg>
