<svg width="67" height="59" viewBox="0 0 67 59" fill="none" xmlns="http://www.w3.org/2000/svg">
<path d="M61.712 32.0491C66.5418 31.2108 68.6558 25.4418 65.5172 21.665L50.0693 3.07569C46.9307 -0.701176 40.8934 0.346718 39.2022 4.9619L37.5333 9.51615C36.9854 9.42375 36.4302 9.33544 35.8692 9.25219C31.4007 8.58909 26.3176 8.20862 21.5156 8.75854C16.7956 9.29905 11.5878 10.8271 7.74282 14.6843C-2.42082 24.8801 -2.76922 41.7751 7.82977 51.9826C14.609 58.5114 23.2819 59.1874 29.3827 58.6155C32.5089 58.3224 35.236 57.6828 37.1753 57.1228C38.1521 56.8408 38.948 56.5734 39.5169 56.3696C39.8018 56.2675 40.0311 56.1808 40.1991 56.1155C40.2831 56.0829 40.352 56.0555 40.4049 56.0342L40.4723 56.0069L40.497 55.9967L40.5114 55.9908L40.5154 55.9891C43.5608 54.7224 45.006 51.2188 43.7433 48.1638C42.4831 45.1149 39.0022 43.6648 35.9611 44.9181L35.959 44.9189C35.9496 44.9227 35.9256 44.9323 35.8877 44.9471C35.8119 44.9765 35.6809 45.0263 35.5002 45.0911C35.1379 45.2209 34.5814 45.4089 33.8731 45.6134C32.4421 46.0266 30.4684 46.4848 28.2718 46.6908C23.7273 47.1168 19.2675 46.3955 16.0978 43.3429C10.5527 38.0026 10.5237 28.8321 16.1848 23.1531C17.3143 22.0201 19.419 21.0531 22.8696 20.6579C26.0122 20.298 29.6571 20.4857 33.3299 20.987L30.8783 27.6772C29.1871 32.2924 33.1103 37.0135 37.9402 36.1752L61.712 32.0491Z" fill="#C7AEBA"/>
</svg>
