<svg width="45" height="64" viewBox="0 0 45 64" fill="none" xmlns="http://www.w3.org/2000/svg">
<path fill-rule="evenodd" clip-rule="evenodd" d="M20.8209 0.776428C15.4825 0.776428 11.1139 4.91966 10.7683 10.1594H10.0746C4.51056 10.1594 0 14.6604 0 20.2126V21.553C0 22.7541 0.527663 23.8321 1.36428 24.569C0.527663 25.3058 0 26.3839 0 27.5849V50.3722C0 57.7752 6.01408 63.7764 13.4328 63.7764H31.5672C38.9859 63.7764 45 57.7752 45 50.3722V27.5849C45 26.3839 44.4723 25.3058 43.6357 24.569C44.4723 23.8321 45 22.7541 45 21.553V20.2126C45 14.6604 40.4894 10.1594 34.9254 10.1594H34.2317C33.8861 4.91966 29.5175 0.776428 24.1791 0.776428H20.8209ZM26.6738 10.1594H18.3262C17.4784 10.1594 16.791 9.47355 16.791 8.62749C16.791 6.51236 18.5094 4.7977 20.629 4.7977H24.371C26.4906 4.7977 28.209 6.51236 28.209 8.62749C28.209 9.47355 27.5216 10.1594 26.6738 10.1594ZM20.8209 31.6062C20.8209 30.8659 21.4223 30.2658 22.1642 30.2658H22.8358C23.5777 30.2658 24.1791 30.8659 24.1791 31.6062V52.3828C24.1791 53.1231 23.5777 53.7232 22.8358 53.7232H22.1642C21.4223 53.7232 20.8209 53.1231 20.8209 52.3828V31.6062ZM32.2388 30.2658C31.4969 30.2658 30.8955 30.8659 30.8955 31.6062V52.3828C30.8955 53.1231 31.4969 53.7232 32.2388 53.7232H32.9104C33.6523 53.7232 34.2537 53.1231 34.2537 52.3828V31.6062C34.2537 30.8659 33.6523 30.2658 32.9104 30.2658H32.2388ZM10.7463 31.6062C10.7463 30.8659 11.3477 30.2658 12.0896 30.2658H12.7612C13.5031 30.2658 14.1045 30.8659 14.1045 31.6062V52.3828C14.1045 53.1231 13.5031 53.7232 12.7612 53.7232H12.0896C11.3477 53.7232 10.7463 53.1231 10.7463 52.3828V31.6062Z" fill="#C7AEBA"/>
</svg>
