<svg width="67" height="59" viewBox="0 0 67 59" fill="none" xmlns="http://www.w3.org/2000/svg">
<path d="M5.28804 32.0491C0.458214 31.2108 -1.6558 25.4418 1.48282 21.665L16.9307 3.07569C20.0693 -0.701176 26.1066 0.346718 27.7978 4.9619L29.4667 9.51615C30.0146 9.42375 30.5698 9.33544 31.1308 9.25219C35.5993 8.58909 40.6824 8.20862 45.4844 8.75854C50.2044 9.29905 55.4122 10.8271 59.2572 14.6843C69.4208 24.8801 69.7692 41.7751 59.1702 51.9826C52.391 58.5114 43.7181 59.1874 37.6173 58.6155C34.4911 58.3224 31.764 57.6828 29.8247 57.1228C28.8479 56.8408 28.052 56.5734 27.4831 56.3696C27.1982 56.2675 26.9689 56.1808 26.8009 56.1155C26.7169 56.0829 26.648 56.0555 26.5951 56.0342L26.5277 56.0069L26.503 55.9967L26.4886 55.9908L26.4846 55.9891C23.4392 54.7224 21.994 51.2188 23.2567 48.1638C24.5169 45.1149 27.9978 43.6648 31.0389 44.9181L31.041 44.9189C31.0504 44.9227 31.0744 44.9323 31.1123 44.9471C31.1881 44.9765 31.3191 45.0263 31.4998 45.0911C31.8621 45.2209 32.4186 45.4089 33.1269 45.6134C34.5579 46.0266 36.5316 46.4848 38.7282 46.6908C43.2727 47.1168 47.7325 46.3955 50.9022 43.3429C56.4473 38.0026 56.4763 28.8321 50.8152 23.1531C49.6857 22.0201 47.581 21.0531 44.1304 20.6579C40.9878 20.298 37.3429 20.4857 33.6701 20.987L36.1217 27.6772C37.8129 32.2924 33.8897 37.0135 29.0598 36.1752L5.28804 32.0491Z" fill="#C7AEBA"/>
</svg>
